<?xml version="1.0" encoding="UTF-8"?>
<svg version="1.1" xmlns="http://www.w3.org/2000/svg" width="976" height="591">
<path d="M0 0 C322.08 0 644.16 0 976 0 C976 195.03 976 390.06 976 591 C653.92 591 331.84 591 0 591 C0 395.97 0 200.94 0 0 Z " fill="#FEFEFE" transform="translate(0,0)"/>
<path d="M0 0 C322.08 0 644.16 0 976 0 C976 25.41 976 50.82 976 77 C655.9 77 335.8 77 6 77 C5.25520118 82.21359171 4.8576204 87.01172017 4.87415886 92.2271471 C4.87270542 93.0315372 4.87125198 93.8359273 4.86975449 94.66469285 C4.86610636 97.35890393 4.8695754 100.05305801 4.87301636 102.74726868 C4.87186408 104.69879075 4.87027584 106.6503126 4.86828911 108.601834 C4.86411063 113.96370604 4.86617981 119.3255603 4.86927533 124.68743241 C4.87153514 130.46995231 4.86804696 136.25246912 4.86529541 142.0349884 C4.8608454 153.36124286 4.86181066 164.68749069 4.86470805 176.0137454 C4.86696453 185.21455445 4.86727354 194.41536164 4.86618423 203.61617088 C4.866031 204.92461551 4.86587777 206.23306014 4.86571989 207.58115461 C4.86540018 210.23899641 4.86507596 212.89683821 4.8647473 215.55468001 C4.86187579 239.77300601 4.86485153 263.99132865 4.8700899 288.20965408 C4.87483827 310.33093343 4.87440851 332.45220703 4.86962891 354.57348633 C4.86427844 379.41997864 4.86216681 404.26646771 4.86524117 429.11296052 C4.86555973 431.75960966 4.8658741 434.4062588 4.86618423 437.05290794 C4.86633851 438.35522165 4.86649279 439.65753536 4.86665174 440.99931312 C4.86751677 450.19621657 4.86605436 459.39311799 4.86370468 468.59002113 C4.86090688 479.78726039 4.86164463 490.98449263 4.86698543 502.18173108 C4.86962231 507.89935877 4.87062768 513.61697474 4.86733627 519.33460236 C4.86437321 524.560647 4.86596629 529.78666898 4.87131383 535.01271155 C4.87243793 536.91091005 4.87184697 538.80911043 4.86943804 540.70730773 C4.86643072 543.27225255 4.86948205 545.83711804 4.87415886 548.4020586 C4.87181769 549.15205469 4.86947653 549.90205078 4.86706442 550.67477402 C4.81816479 554.46330153 4.81816479 554.46330153 6 558 C326.1 558 646.2 558 976 558 C976 568.89 976 579.78 976 591 C653.92 591 331.84 591 0 591 C0 395.97 0 200.94 0 0 Z " fill="#F90101" transform="translate(0,0)"/>
<path d="M0 0 C2.265625 1.89453125 2.265625 1.89453125 4 4 C4.99 4.7425 5.98 5.485 7 6.25 C10.54653036 9.13943209 12.40782476 12.75732126 14 17 C14 17.66 14 18.32 14 19 C14.81678223 18.98428955 15.63356445 18.9685791 16.47509766 18.95239258 C20.19166077 18.8898606 23.90811296 18.85095056 27.625 18.8125 C28.91019531 18.78736328 30.19539062 18.76222656 31.51953125 18.73632812 C33.38544922 18.72182617 33.38544922 18.72182617 35.2890625 18.70703125 C37.00150146 18.68346558 37.00150146 18.68346558 38.74853516 18.65942383 C43.34558142 19.14094354 46.61235969 20.36803421 49.64874268 23.93904114 C51.66831225 28.5139058 51.41760206 32.82122774 51.38818359 37.76953125 C51.39344055 38.85462982 51.39869751 39.93972839 51.40411377 41.05770874 C51.41731224 44.64278579 51.40857587 48.22741846 51.3984375 51.8125 C51.40045827 54.30444423 51.40336973 56.79638788 51.40713501 59.28833008 C51.41212459 65.17902715 51.40162867 71.06956309 51.3856827 76.96023655 C51.37441889 81.65552239 51.37840323 86.3506196 51.39111328 91.04589844 C51.40849474 97.52262849 51.41123354 103.99917621 51.4014473 110.47592163 C51.39944532 112.94469241 51.40190446 115.41347095 51.40888596 117.88223267 C51.41650025 121.33185429 51.4048957 124.78089073 51.38818359 128.23046875 C51.39425629 129.25191986 51.40032898 130.27337097 51.40658569 131.32577515 C51.34690632 137.97157015 50.44204116 141.26322311 45.96186829 146.28411865 C41.56235479 148.83286236 37.60876251 148.52726423 32.61010742 148.45410156 C31.56574524 148.45468567 30.52138306 148.45526978 29.44537354 148.45587158 C25.99839882 148.4530881 22.55229214 148.42198234 19.10546875 148.390625 C16.71365328 148.38316358 14.3218317 148.37747018 11.93000793 148.37347412 C5.63834725 148.35821015 -0.6529434 148.31892112 -6.94445801 148.2746582 C-13.36591588 148.23372235 -19.7874336 148.21546666 -26.20898438 148.1953125 C-38.80614735 148.15242815 -51.40305398 148.08493723 -64 148 C-64.29700522 147.39325943 -64.59401045 146.78651886 -64.90001583 146.16139221 C-66.0167615 143.89240106 -66.0167615 143.89240106 -67.5997467 141.41772461 C-69.54640768 136.66633346 -69.42701044 132.40392644 -69.40405273 127.31640625 C-69.41091599 126.25227509 -69.41777924 125.18814392 -69.42485046 124.09176636 C-69.44311946 120.58187436 -69.43928103 117.07242924 -69.43359375 113.5625 C-69.43815511 111.11922053 -69.44346054 108.67594234 -69.44947815 106.23266602 C-69.45840919 101.11501855 -69.45598562 95.99752714 -69.44604492 90.87988281 C-69.43454873 84.32257645 -69.45477741 77.76580807 -69.48396206 71.20857239 C-69.50230838 66.16423117 -69.50203479 61.12001928 -69.49632454 56.07565308 C-69.49617117 53.65794113 -69.50222835 51.2402205 -69.51461601 48.82254028 C-69.52949588 45.44254789 -69.51887029 42.0635549 -69.50170898 38.68359375 C-69.51137695 37.68601044 -69.52104492 36.68842712 -69.53100586 35.66061401 C-69.456133 28.61704441 -68.1516579 25.22328648 -63.18457031 20.14331055 C-60.06890895 18.51270682 -57.54832025 18.66252135 -54.046875 18.70703125 C-53.05654266 18.71339851 -53.05654266 18.71339851 -52.04620361 18.71989441 C-49.94704609 18.73662565 -47.84886504 18.77426449 -45.75 18.8125 C-44.32293058 18.82755416 -42.89584604 18.84124129 -41.46875 18.85351562 C-37.97885183 18.88650999 -34.4895213 18.93825257 -31 19 C-30.86279541 18.05455322 -30.72559082 17.10910645 -30.58422852 16.13500977 C-29.44675859 10.03126913 -24.28513749 5.69617841 -19.5 2 C-13.81634749 -1.30054624 -6.31331281 -1.05464327 0 0 Z " fill="#FFFBFB" transform="translate(502,234)"/>
<path d="M0 0 C2.265625 1.89453125 2.265625 1.89453125 4 4 C4.99 4.7425 5.98 5.485 7 6.25 C10.54653036 9.13943209 12.40782476 12.75732126 14 17 C14 17.66 14 18.32 14 19 C14.81678223 18.98428955 15.63356445 18.9685791 16.47509766 18.95239258 C20.19166077 18.8898606 23.90811296 18.85095056 27.625 18.8125 C28.91019531 18.78736328 30.19539062 18.76222656 31.51953125 18.73632812 C33.38544922 18.72182617 33.38544922 18.72182617 35.2890625 18.70703125 C37.00150146 18.68346558 37.00150146 18.68346558 38.74853516 18.65942383 C43.34558142 19.14094354 46.61235969 20.36803421 49.64874268 23.93904114 C51.66831225 28.5139058 51.41760206 32.82122774 51.38818359 37.76953125 C51.39344055 38.85462982 51.39869751 39.93972839 51.40411377 41.05770874 C51.41731224 44.64278579 51.40857587 48.22741846 51.3984375 51.8125 C51.40045827 54.30444423 51.40336973 56.79638788 51.40713501 59.28833008 C51.41212459 65.17902715 51.40162867 71.06956309 51.3856827 76.96023655 C51.37441889 81.65552239 51.37840323 86.3506196 51.39111328 91.04589844 C51.40849474 97.52262849 51.41123354 103.99917621 51.4014473 110.47592163 C51.39944532 112.94469241 51.40190446 115.41347095 51.40888596 117.88223267 C51.41650025 121.33185429 51.4048957 124.78089073 51.38818359 128.23046875 C51.39425629 129.25191986 51.40032898 130.27337097 51.40658569 131.32577515 C51.34690632 137.97157015 50.44204116 141.26322311 45.96186829 146.28411865 C41.56235479 148.83286236 37.60876251 148.52726423 32.61010742 148.45410156 C31.56574524 148.45468567 30.52138306 148.45526978 29.44537354 148.45587158 C25.99839882 148.4530881 22.55229214 148.42198234 19.10546875 148.390625 C16.71365328 148.38316358 14.3218317 148.37747018 11.93000793 148.37347412 C5.63834725 148.35821015 -0.6529434 148.31892112 -6.94445801 148.2746582 C-13.36591588 148.23372235 -19.7874336 148.21546666 -26.20898438 148.1953125 C-38.80614735 148.15242815 -51.40305398 148.08493723 -64 148 C-64.29700522 147.39325943 -64.59401045 146.78651886 -64.90001583 146.16139221 C-66.0167615 143.89240106 -66.0167615 143.89240106 -67.5997467 141.41772461 C-69.54640768 136.66633346 -69.42701044 132.40392644 -69.40405273 127.31640625 C-69.41091599 126.25227509 -69.41777924 125.18814392 -69.42485046 124.09176636 C-69.44311946 120.58187436 -69.43928103 117.07242924 -69.43359375 113.5625 C-69.43815511 111.11922053 -69.44346054 108.67594234 -69.44947815 106.23266602 C-69.45840919 101.11501855 -69.45598562 95.99752714 -69.44604492 90.87988281 C-69.43454873 84.32257645 -69.45477741 77.76580807 -69.48396206 71.20857239 C-69.50230838 66.16423117 -69.50203479 61.12001928 -69.49632454 56.07565308 C-69.49617117 53.65794113 -69.50222835 51.2402205 -69.51461601 48.82254028 C-69.52949588 45.44254789 -69.51887029 42.0635549 -69.50170898 38.68359375 C-69.51137695 37.68601044 -69.52104492 36.68842712 -69.53100586 35.66061401 C-69.456133 28.61704441 -68.1516579 25.22328648 -63.18457031 20.14331055 C-60.06890895 18.51270682 -57.54832025 18.66252135 -54.046875 18.70703125 C-53.05654266 18.71339851 -53.05654266 18.71339851 -52.04620361 18.71989441 C-49.94704609 18.73662565 -47.84886504 18.77426449 -45.75 18.8125 C-44.32293058 18.82755416 -42.89584604 18.84124129 -41.46875 18.85351562 C-37.97885183 18.88650999 -34.4895213 18.93825257 -31 19 C-30.86279541 18.05455322 -30.72559082 17.10910645 -30.58422852 16.13500977 C-29.44675859 10.03126913 -24.28513749 5.69617841 -19.5 2 C-13.81634749 -1.30054624 -6.31331281 -1.05464327 0 0 Z M-53 38 C-53.38936414 41.04181026 -53.5370475 43.71951666 -53.50170898 46.76000977 C-53.50711197 47.64334991 -53.51251495 48.52669006 -53.51808167 49.4367981 C-53.53058471 52.35534207 -53.51406879 55.27290272 -53.49609375 58.19140625 C-53.49624869 60.21874544 -53.49773679 62.24608493 -53.50050354 64.27342224 C-53.50188819 68.52120057 -53.48931713 72.76864152 -53.46655273 77.01635742 C-53.43814994 82.46643593 -53.44090951 87.91595451 -53.45364285 93.36607456 C-53.46059059 97.55161845 -53.45282139 101.73703243 -53.44038582 105.92255974 C-53.43586379 107.93244873 -53.43554105 109.94235162 -53.43945122 111.9522419 C-53.44235502 114.75824813 -53.42589701 117.56347669 -53.40405273 120.36938477 C-53.40855438 121.20323196 -53.41305603 122.03707916 -53.41769409 122.89619446 C-53.4718232 127.07717298 -53.4718232 127.07717298 -51.69120026 130.71255493 C-48.87198125 132.85871686 -45.59869693 132.42448749 -42.19555664 132.40405273 C-41.0048481 132.41434761 -41.0048481 132.41434761 -39.79008484 132.42485046 C-37.16326056 132.44316778 -34.53703076 132.43927396 -31.91015625 132.43359375 C-30.08556422 132.43815333 -28.26097391 132.44345823 -26.43638611 132.44947815 C-22.61059598 132.45841904 -18.78501449 132.45597521 -14.95922852 132.44604492 C-10.05504947 132.43455639 -5.15159056 132.4547598 -0.24750614 132.48396206 C3.52116984 132.5023039 7.28967263 132.5020356 11.05838203 132.49632454 C12.86650159 132.49617106 14.6746327 132.50223703 16.48270988 132.51461601 C19.01098733 132.52948575 21.53792669 132.51887934 24.06616211 132.50170898 C24.81382843 132.51137695 25.56149475 132.52104492 26.33181763 132.53100586 C29.54817494 132.48523968 31.69486806 132.18553256 34.46252441 130.50268555 C36.66802621 126.91259441 36.56638869 123.54394807 36.53344727 119.45532227 C36.54206284 118.59470184 36.55067841 117.73408142 36.55955505 116.84738159 C36.58225169 114.0034169 36.57546919 111.16043471 36.56640625 108.31640625 C36.57164044 106.33869636 36.57791617 104.36098897 36.58518982 102.38328552 C36.59560104 98.23807022 36.59102252 94.09319804 36.57641602 89.94799805 C36.55923291 84.63689278 36.58271396 79.32686982 36.61790562 74.01588535 C36.63987144 69.93146093 36.63844 65.84729576 36.6301403 61.76283073 C36.62932023 59.80481721 36.63619439 57.84678476 36.65091133 55.88882637 C36.6683409 53.14989954 36.65382837 50.41292086 36.63110352 47.67407227 C36.64279572 46.8661171 36.65448792 46.05816193 36.66653442 45.22572327 C36.59469816 40.96825965 36.35506697 39.44362883 33.59356689 35.99334717 C30.96015959 33.96937971 30.02694671 33.38828448 26.79296875 33.51171875 C25.66665039 33.53588867 25.66665039 33.53588867 24.51757812 33.56054688 C23.74865234 33.60244141 22.97972656 33.64433594 22.1875 33.6875 C21.39923828 33.71005859 20.61097656 33.73261719 19.79882812 33.75585938 C17.86506071 33.81445839 15.93227833 33.90413173 14 34 C13.97421875 34.61488281 13.9484375 35.22976563 13.921875 35.86328125 C13.83679688 37.07564453 13.83679688 37.07564453 13.75 38.3125 C13.70359375 39.11300781 13.6571875 39.91351563 13.609375 40.73828125 C13 43 13 43 11.46972656 44.61425781 C8.00778797 46.55672158 4.74272422 46.44864718 0.875 46.43359375 C0.09108887 46.4388356 -0.69282227 46.44407745 -1.50048828 46.44947815 C-3.15461037 46.4558894 -4.8087781 46.45457293 -6.46289062 46.44604492 C-8.99171121 46.43752792 -11.5182771 46.46631641 -14.046875 46.49804688 C-15.65624932 46.49965889 -17.26562764 46.49908134 -18.875 46.49609375 C-20.00639404 46.51294472 -20.00639404 46.51294472 -21.16064453 46.53013611 C-24.5990153 46.48454794 -26.634386 46.26227726 -29.4609375 44.23461914 C-31.83142719 40.79282153 -31.72495578 38.12566324 -32 34 C-34.75105422 33.89187997 -37.49785087 33.81265055 -40.25 33.75 C-41.02730469 33.71648437 -41.80460937 33.68296875 -42.60546875 33.6484375 C-43.35957031 33.63554687 -44.11367188 33.62265625 -44.890625 33.609375 C-45.58188477 33.58842773 -46.27314453 33.56748047 -46.98535156 33.54589844 C-50.08094323 34.2436445 -51.08678187 35.47059924 -53 38 Z " fill="#FC0606" transform="translate(502,234)"/>
<path d="M0 0 C16.83 0 33.66 0 51 0 C51 9.36039966 50.13750827 15.94266768 43.8125 23.0625 C40.64374493 26.67152086 39.46595865 28.78431967 39.5 33.625 C39.62599215 35.08740893 39.77773441 36.54909963 40 38 C41.155 38.33 42.31 38.66 43.5 39 C54.75044423 42.79168453 68.62903197 48.4974252 75.19921875 58.8984375 C76.81981955 63.15152643 76.601629 67.54277011 76 72 C72.59305065 78.24607381 67.53296714 79.83705818 61 82 C60.40571198 82.2431897 59.81142395 82.48637939 59.1991272 82.73693848 C52.5155624 85.30870979 46.29599219 85.42028591 39.1953125 85.36328125 C37.39391312 85.36402901 37.39391312 85.36402901 35.55612183 85.36479187 C33.03316583 85.36246239 30.51020702 85.35280091 27.98730469 85.33618164 C24.11632707 85.31244682 20.24603261 85.31564722 16.375 85.32226562 C13.91926671 85.31669301 11.46353633 85.30958576 9.0078125 85.30078125 C7.84847198 85.30169266 6.68913147 85.30260406 5.49465942 85.30354309 C4.42279388 85.29401108 3.35092834 85.28447906 2.24658203 85.2746582 C1.30332062 85.27005081 0.3600592 85.26544342 -0.61178589 85.26069641 C-3 85 -3 85 -6 83 C-7.59207312 82.5012783 -9.19827286 82.04653397 -10.8125 81.625 C-16.83388002 79.87827314 -21.62628895 77.45719265 -25 72 C-25.96190366 67.12077851 -26.11625649 62.18462079 -23.81640625 57.68359375 C-16.62148544 48.86679631 -5.73539085 44.18471486 4.42529297 39.6640625 C8.40637403 38.13637151 8.40637403 38.13637151 11 35 C11.58791673 31.39901004 11.65990382 28.9789782 9.578125 25.890625 C8.33010134 24.38659648 7.07864341 22.88541272 5.82421875 21.38671875 C0.47763076 14.39150405 0 8.84439494 0 0 Z " fill="#FD0303" transform="translate(152,297)"/>
<path d="M0 0 C2.31 0 4.62 0 7 0 C7 0.99 7 1.98 7 3 C8.97597377 4.96495357 8.97597377 4.96495357 11.625 6.9375 C12.62144531 7.72511719 13.61789062 8.51273438 14.64453125 9.32421875 C15.1854541 9.75138184 15.72637695 10.17854492 16.28369141 10.61865234 C19.35461161 13.09024075 22.32944134 15.67364949 25.3125 18.25 C29.51120656 21.87154653 33.73129491 25.46104329 38 29 C36.63733356 33.03805866 34.8590849 35.54368118 31.9375 38.625 C27.90335746 42.98084449 24.1176233 47.46882419 20.3828125 52.08203125 C17.79244248 55.25417289 15.15321062 58.38046751 12.5 61.5 C9.14539595 65.44638883 5.82777828 69.41642493 2.5625 73.4375 C-0.98933904 77.7957025 -4.60016311 82.09886967 -8.25 86.375 C-8.74556396 86.95822021 -9.24112793 87.54144043 -9.75170898 88.14233398 C-12.70102744 91.5837843 -15.75372084 94.83665497 -19 98 C-19.95519531 97.16597656 -20.91039062 96.33195312 -21.89453125 95.47265625 C-23.20017081 94.33553548 -24.50618678 93.19884681 -25.8125 92.0625 C-26.49014404 91.47291504 -27.16778809 90.88333008 -27.8659668 90.27587891 C-32.7978906 86.0013512 -37.8096902 81.85779401 -42.92578125 77.8046875 C-45 76 -45 76 -47 73 C-46.29875 73.20496094 -45.5975 73.40992188 -44.875 73.62109375 C-34.99742602 76.94216708 -34.99742602 76.94216708 -25.125 75.75 C-22.06681698 73.23149634 -21.07385812 71.56976268 -20.5625 67.625 C-21.12426243 62.97039701 -22.51845182 62.05456586 -26 59 C-28.20609105 57.4453255 -30.4863197 56.05416334 -32.8125 54.6875 C-33.40998047 54.32849609 -34.00746094 53.96949219 -34.62304688 53.59960938 C-36.07813956 52.72655376 -37.53852729 51.86233309 -39 51 C-36.5990932 46.63916928 -33.64022797 43.09202052 -30.375 39.375 C-29.28806616 38.1232603 -28.20213693 36.87064759 -27.1171875 35.6171875 C-26.58448242 35.00198242 -26.05177734 34.38677734 -25.50292969 33.75292969 C-23.45931309 31.36937427 -21.47625854 28.93955724 -19.5 26.5 C-15.47542747 21.54102032 -11.33544856 16.68944175 -7.16015625 11.85742188 C-4.37014996 8.62355095 -1.64504239 5.35499439 1 2 C0.505 1.01 0.505 1.01 0 0 Z " fill="#E53C38" transform="translate(804,234)"/>
<path d="M0 0 C8.58 0 17.16 0 26 0 C24.93075246 12.83097049 23.5200364 17.71047644 15.29296875 26.53125 C13.75794817 29.46216542 13.44084036 31.78938939 14.01733398 35.06445312 C16.16535382 39.29538512 21.24157336 40.41242511 25.4375 42 C46.48135459 50.73035133 46.48135459 50.73035133 51 61 C51.61660121 65.49030765 51.4732453 69.4788544 50.125 73.8125 C43.23616807 80.90394464 31.97448698 83.5190009 22.39453125 84.1796875 C20.59536817 84.18605622 18.79606964 84.10565116 17 84 C16.92523438 83.38253906 16.85046875 82.76507813 16.7734375 82.12890625 C15.28045106 72.51231711 10.80211767 65.854195 3.33984375 59.6953125 C-3.25946827 54.91384102 -10.39893628 50.93677462 -18 48 C-16.93176896 45.06236463 -15.76672254 42.63879619 -14.0625 40 C-11.98503926 36.57030118 -11.43756177 33.30519181 -10.75 29.375 C-9.55065406 23.52567594 -9.55065406 23.52567594 -7.10546875 21.19140625 C-4.9375 19.9375 -4.9375 19.9375 -2.83984375 19.02734375 C-0.45780624 17.69724637 0.08284667 16.54088908 1 14 C1.24543522 8.92767213 0.85058335 5.1035001 0 0 Z " fill="#FF0303" transform="translate(223,280)"/>
<path d="M0 0 C5.06065397 1.46552875 8.83218679 4.38369059 13.078125 7.4375 C14.75632633 8.62579957 16.43596227 9.8120763 18.1171875 10.99609375 C18.85404785 11.52388428 19.5909082 12.0516748 20.35009766 12.59545898 C24.86022306 15.60761959 27.67525028 16.24366557 33.1875 16.1953125 C35.13076172 16.18564453 35.13076172 16.18564453 37.11328125 16.17578125 C38.47656519 16.15907193 39.83984644 16.14214206 41.203125 16.125 C42.58202485 16.1149634 43.96093165 16.10583873 45.33984375 16.09765625 C48.71111382 16.07408093 52.08203136 16.0411727 55.453125 16 C55.453125 15.34 55.453125 14.68 55.453125 14 C54.61334106 13.98598145 54.61334106 13.98598145 53.7565918 13.97167969 C51.21704354 13.91795493 48.67933389 13.83431813 46.140625 13.75 C44.81901367 13.72873047 44.81901367 13.72873047 43.47070312 13.70703125 C36.96812208 13.45978482 36.96812208 13.45978482 34.33984375 11.11328125 C33.15351621 8.28595439 33.42459428 6.86519271 34.453125 4 C35.51928711 2.37475586 35.51928711 2.37475586 37.453125 1 C40.1371266 0.68895577 42.58424197 0.55576215 45.26953125 0.56640625 C46.04062729 0.5611644 46.81172333 0.55592255 47.60618591 0.55052185 C49.24110716 0.54409745 50.87607461 0.54544409 52.51098633 0.55395508 C54.98280227 0.56238802 57.4522452 0.53383973 59.92382812 0.50195312 C78.03599253 0.41272612 78.03599253 0.41272612 85.23168945 6.50610352 C89.19990359 10.72681251 91.48338231 15.70813343 93.703125 21 C94.04085937 21.76828125 94.37859375 22.5365625 94.7265625 23.328125 C96.66800806 27.82249504 98.21848394 32.2630098 99.453125 37 C74.47046661 39.38776806 74.47046661 39.38776806 64.453125 39 C64.453125 38.34 64.453125 37.68 64.453125 37 C59.81942481 35.18897905 55.70035988 34.73187314 50.78125 34.76171875 C49.29686592 34.74629306 47.81249076 34.72998898 46.328125 34.71289062 C44.01997967 34.69650866 41.71249506 34.68747114 39.40429688 34.69458008 C26.65298321 34.70960412 17.97897768 32.89734808 8.53515625 23.828125 C7.93058594 23.22484375 7.32601562 22.6215625 6.703125 22 C5.45973962 20.79021963 4.21496724 19.58186301 2.96875 18.375 C2.38206543 17.79999756 1.79538086 17.22499512 1.19091797 16.63256836 C-0.46597156 15.07600468 -2.17813789 13.66267165 -3.9609375 12.25390625 C-6.546875 10 -6.546875 10 -7.171875 6.9375 C-6.24801666 2.59536581 -4.71525081 0 0 0 Z " fill="#E53B38" transform="translate(756.546875,332)"/>
<path d="M0 0 C1.23556641 0.01740234 1.23556641 0.01740234 2.49609375 0.03515625 C3.32238281 0.04417969 4.14867187 0.05320313 5 0.0625 C5.63808594 0.07410156 6.27617187 0.08570313 6.93359375 0.09765625 C8.34994208 2.93035291 8.27989425 5.57232063 8.49609375 8.72265625 C8.57988281 9.91117187 8.66367188 11.0996875 8.75 12.32421875 C8.81058594 13.23945313 8.87117188 14.1546875 8.93359375 15.09765625 C10.41859375 9.65265625 10.41859375 9.65265625 11.93359375 4.09765625 C18.71497829 5.79300238 23.7390293 9.54721649 28.24609375 14.78515625 C30.2270481 18.67369627 31.1429003 22.44773781 32.02734375 26.70703125 C32.70644636 29.24842535 32.70644636 29.24842535 34.96484375 30.30078125 C35.61453125 30.56375 36.26421875 30.82671875 36.93359375 31.09765625 C37.93359375 33.09765625 37.93359375 33.09765625 37.93359375 39.09765625 C14.50359375 39.09765625 -8.92640625 39.09765625 -33.06640625 39.09765625 C-33.06640625 33.09765625 -33.06640625 33.09765625 -31.69140625 31.28515625 C-30.06640625 30.09765625 -30.06640625 30.09765625 -28.06640625 29.09765625 C-27.58501613 27.42746736 -27.1810843 25.73464949 -26.81640625 24.03515625 C-24.91655677 16.7112365 -21.45700902 11.74081701 -15.50390625 7.09765625 C-12.20150153 5.17625714 -10.77430178 4.5358539 -7.06640625 5.09765625 C-6.07640625 8.06765625 -5.08640625 11.03765625 -4.06640625 14.09765625 C-3.97552734 12.70740234 -3.97552734 12.70740234 -3.8828125 11.2890625 C-3.79902344 10.09152344 -3.71523437 8.89398438 -3.62890625 7.66015625 C-3.54769531 6.46519531 -3.46648437 5.27023437 -3.3828125 4.0390625 C-2.9633965 0.14004709 -2.9633965 0.14004709 0 0 Z " fill="#FF0505" transform="translate(175.06640625,251.90234375)"/>
<path d="M0 0 C-1.60655532 3.69333099 -3.92239605 6.48694984 -6.5 9.5625 C-8.81239639 12.32911711 -10.99917699 14.99876548 -13 18 C-14.9453125 18.51171875 -14.9453125 18.51171875 -17.125 18.6875 C-18.40375 18.790625 -19.6825 18.89375 -21 19 C-21.33 20.65 -21.66 22.3 -22 24 C-21.01386719 24.35771484 -21.01386719 24.35771484 -20.0078125 24.72265625 C-16.13705023 26.36647347 -12.53521313 28.37404651 -8.875 30.4375 C-7.80185547 31.03014648 -7.80185547 31.03014648 -6.70703125 31.63476562 C-6.01738281 32.02212891 -5.32773437 32.40949219 -4.6171875 32.80859375 C-3.68302002 33.33151001 -3.68302002 33.33151001 -2.72998047 33.86499023 C-0.84253156 35.10331228 0.58838147 36.23207437 2 38 C1.875 41.5625 1.875 41.5625 1 45 C-2.25644719 47.17096479 -3.18068135 47.16272028 -6.88183594 46.49853516 C-11.2102488 45.4797916 -15.41015344 44.09540043 -19.625 42.6875 C-20.553125 42.39166016 -21.48125 42.09582031 -22.4375 41.79101562 C-29.04050036 39.60105204 -33.06045622 36.93954378 -38 32 C-42.29 32.66 -46.58 33.32 -51 34 C-51 24.1 -51 14.2 -51 4 C-46.71 3.01 -42.42 2.02 -38 1 C-35.958125 0.278125 -33.91625 -0.44375 -31.8125 -1.1875 C-20.94641852 -4.87091745 -10.9158836 -2.27527102 0 0 Z " fill="#E53C38" transform="translate(778,261)"/>
<path d="M0 0 C4.00150588 1.67053158 7.02306242 4.43115289 10.25 7.25 C11.3364686 8.19509679 12.42503724 9.13778448 13.515625 10.078125 C14.06742432 10.56450439 14.61922363 11.05088379 15.18774414 11.55200195 C16.99642318 13.06795926 16.99642318 13.06795926 19.18530273 14.28198242 C22.56483216 16.33773477 24.66603308 17.65735761 25.64990234 21.61279297 C25.82399518 24.71736351 25.74866786 27.70906262 25.5625 30.8125 C25.53478516 31.87404297 25.50707031 32.93558594 25.47851562 34.02929688 C25.22580295 41.77419705 25.22580295 41.77419705 24 43 C22.65732587 43.08631874 21.31025678 43.10706473 19.96484375 43.09765625 C19.15595703 43.09443359 18.34707031 43.09121094 17.51367188 43.08789062 C16.66353516 43.07951172 15.81339844 43.07113281 14.9375 43.0625 C14.08349609 43.05798828 13.22949219 43.05347656 12.34960938 43.04882812 C10.23304337 43.03700373 8.11651315 43.01906769 6 43 C6 37.72 6 32.44 6 27 C2.7 27 -0.6 27 -4 27 C-4 32.28 -4 37.56 -4 43 C-6.97922593 43.02683987 -9.95821295 43.04676037 -12.9375 43.0625 C-13.78763672 43.07087891 -14.63777344 43.07925781 -15.51367188 43.08789062 C-16.32255859 43.09111328 -17.13144531 43.09433594 -17.96484375 43.09765625 C-18.7137085 43.10289307 -19.46257324 43.10812988 -20.23413086 43.11352539 C-22 43 -22 43 -23 42 C-25.45934044 23.04653593 -25.45934044 23.04653593 -21.2265625 16.08203125 C-18.59932758 14.08822352 -15.88791143 12.5918197 -13 11 C-10.5426373 9.09336637 -8.2132129 7.04992243 -5.875 5 C-4.74880754 4.04000809 -3.6213213 3.0815306 -2.4921875 2.125 C-1.66976562 1.42375 -0.84734375 0.7225 0 0 Z " fill="#FFFBFB" transform="translate(47,19)"/>
<path d="M0 0 C3.63 0 7.26 0 11 0 C10.67 0.66 10.34 1.32 10 2 C10.08938418 4.88912732 10.234048 7.74393255 10.4375 10.625 C10.51581055 11.82769531 10.51581055 11.82769531 10.59570312 13.0546875 C10.72548371 15.03679103 10.86209735 17.01844499 11 19 C11.20496094 18.15695313 11.40992188 17.31390625 11.62109375 16.4453125 C11.89050781 15.34960938 12.15992188 14.25390625 12.4375 13.125 C12.70433594 12.03445312 12.97117188 10.94390625 13.24609375 9.8203125 C14 7 14 7 15 5 C22.52208521 7.01812042 27.20639109 10.31293143 31.375 16.875 C33.22635416 20.13667892 34.00411772 22.0313976 34.5 25.8125 C35.19435605 30.23901984 37.64543507 31.21642484 41 34 C41 35.98 41 37.96 41 40 C27.47 40 13.94 40 0 40 C-1.32 37.03 -2.64 34.06 -4 31 C-7.73439327 23.99406784 -12.50162414 19.49109976 -19 15 C-15.50746301 10.47951773 -12.5513479 6.97381259 -7 5 C-6.01 5.33 -5.02 5.66 -4 6 C-2.62410242 10.26358386 -1.89644425 14.60315439 -1 19 C-0.67 12.73 -0.34 6.46 0 0 Z " fill="#FD0303" transform="translate(218,234)"/>
<path d="M0 0 C0 1.98 0 3.96 0 6 C-1.98 6.33 -3.96 6.66 -6 7 C-5.649375 7.515625 -5.29875 8.03125 -4.9375 8.5625 C-3.57376498 12.10821105 -4.04026679 14.3530138 -5 18 C-7.57660691 21.11905047 -9.1544104 22.7181368 -13 24 C-14.72795352 24.06802967 -16.45835365 24.08495645 -18.1875 24.0625 C-19.08855469 24.05347656 -19.98960937 24.04445312 -20.91796875 24.03515625 C-21.60503906 24.02355469 -22.29210937 24.01195312 -23 24 C-22.50155469 26.08509021 -22.50155469 26.08509021 -21 28 C-17.8568613 28.55826553 -17.8568613 28.55826553 -14.25 28.5 C-4.7310044 28.93978932 -4.7310044 28.93978932 -1 33 C-0.20226211 36.74936808 -0.64279113 38.38560074 -2.5625 41.6875 C-8.21816849 47.05313421 -13.63382171 47.48599444 -21.1796875 47.296875 C-24.66566281 46.92993023 -27.13141723 46.01576087 -30 44 C-31.42041821 41.15916359 -31.31452272 39.14522722 -31 36 C-29 33.625 -29 33.625 -27 32 C-27.66 31.34 -28.32 30.68 -29 30 C-28.67028521 26.70285207 -28.3773161 25.3773161 -26 23 C-26.66 22.319375 -27.32 21.63875 -28 20.9375 C-30.50978123 17.25125882 -30.62608836 15.38261849 -30 11 C-27.80261144 7.46848267 -25.82607104 5.54832012 -22 4 C-19.5625 3.734375 -19.5625 3.734375 -17 3.75 C-15.7315625 3.74226562 -15.7315625 3.74226562 -14.4375 3.734375 C-11.86521189 4.01468845 -10.2196892 4.7051813 -8 6 C-7.87625 5.195625 -7.7525 4.39125 -7.625 3.5625 C-7.315625 2.2940625 -7.315625 2.2940625 -7 1 C-4.53721199 -0.231394 -2.7204945 -0.07159196 0 0 Z " fill="#FF0909" transform="translate(461,128)"/>
<path d="M0 0 C1.56971558 -0.00361794 1.56971558 -0.00361794 3.17114258 -0.00730896 C5.38008418 -0.00633099 7.58905044 0.00705057 9.79785156 0.03198242 C13.1759785 0.06628924 16.55148895 0.05263785 19.9296875 0.03320312 C22.07813612 0.04010176 24.22657799 0.04977429 26.375 0.0625 C27.88767456 0.0550602 27.88767456 0.0550602 29.4309082 0.04747009 C33.80680073 0.12084179 36.48418881 0.2207033 40.32421875 2.44946289 C42.1875 4.62890625 42.1875 4.62890625 42.8125 8.06640625 C42.00292359 12.68099178 40.95043914 13.84711952 37.1875 16.62890625 C33.58381728 17.3697084 30.04389956 17.32979111 26.375 17.29296875 C24.80528442 17.3001442 24.80528442 17.3001442 23.20385742 17.3074646 C20.99493911 17.31086173 18.78597039 17.3016725 16.57714844 17.28076172 C13.1987279 17.25399521 9.82362986 17.28051768 6.4453125 17.3125 C4.29686768 17.30919587 2.14842492 17.30278958 0 17.29296875 C-1.00844971 17.3030899 -2.01689941 17.31321106 -3.0559082 17.32363892 C-7.78321091 17.24475309 -10.07882588 17.17950447 -13.94921875 14.27490234 C-15.8125 11.62890625 -15.8125 11.62890625 -16.4375 8.62890625 C-14.57732102 -0.29995284 -7.55432197 -0.09931758 0 0 Z " fill="#FF0A0A" transform="translate(479.8125,307.37109375)"/>
<path d="M0 0 C1.64198364 -0.00574036 1.64198364 -0.00574036 3.31713867 -0.01159668 C5.63038045 -0.01431736 7.94365292 -0.00694534 10.25683594 0.00976562 C13.79952522 0.0311716 17.34018636 0.00996774 20.8828125 -0.015625 C23.13021281 -0.01298175 25.37761187 -0.00785684 27.625 0 C28.68549561 -0.00809692 29.74599121 -0.01619385 30.83862305 -0.02453613 C38.13215984 0.06855893 38.13215984 0.06855893 41.48046875 2.34570312 C43.45553036 5.58631008 43.34300113 7.8177421 42.8125 11.53125 C41.48046875 13.71459961 41.48046875 13.71459961 38.8125 15.53125 C35.08839377 16.15198446 31.39347353 16.11528116 27.625 16.09765625 C26.53034424 16.10385483 25.43568848 16.11005341 24.30786133 16.11643982 C21.99463796 16.12354034 19.6813635 16.12036001 17.36816406 16.10766602 C13.82521753 16.09379977 10.28491094 16.12787155 6.7421875 16.16601562 C4.49479102 16.16696679 2.24739123 16.16510814 0 16.16015625 C-1.06049561 16.17341446 -2.12099121 16.18667267 -3.21362305 16.20033264 C-10.53272808 16.10747086 -10.53272808 16.10747086 -13.85546875 13.18334961 C-15.48302939 9.94284535 -15.79662128 8.10983753 -15.1875 4.53125 C-11.69919901 -1.10015673 -5.91111733 -0.0451316 0 0 Z " fill="#FF0101" transform="translate(479.1875,335.46875)"/>
<path d="M0 0 C4.32472891 2.02434119 7.53424177 5.0667566 10.9375 8.375 C11.081875 7.240625 11.22625 6.10625 11.375 4.9375 C11.9375 1.375 11.9375 1.375 12.9375 0.375 C14.62358966 0.30294489 16.31250659 0.29113932 18 0.3125 C18.91910156 0.32152344 19.83820313 0.33054687 20.78515625 0.33984375 C21.49542969 0.35144531 22.20570312 0.36304688 22.9375 0.375 C22.916875 1.66535156 22.89625 2.95570312 22.875 4.28515625 C22.60323665 13.67636221 22.60323665 13.67636221 25.78515625 22.1953125 C27.76729991 23.86632603 29.62494936 25.21082303 31.9375 26.375 C31.4425 28.85 31.4425 28.85 30.9375 31.375 C26.00572739 31.375 24.33969709 29.55644662 20.875 26.4375 C19.7179945 25.42906005 18.56043284 24.42125787 17.40234375 23.4140625 C16.82339355 22.90520508 16.24444336 22.39634766 15.64794922 21.87207031 C13.10731699 19.6483825 10.53166475 17.47371731 7.9375 15.3125 C6.6690625 14.24322266 6.6690625 14.24322266 5.375 13.15234375 C2.95681912 11.38908686 0.75606902 10.34639968 -2.0625 9.375 C-8.65624351 14.72663552 -15.18853512 20.13965673 -21.64526367 25.65551758 C-24.38732182 27.99068142 -27.14986249 30.2554421 -30.0625 32.375 C-31.3825 31.715 -32.7025 31.055 -34.0625 30.375 C-33.59840717 25.79808449 -32.14711564 24.07167578 -28.6875 21.125 C-27.78386719 20.34898438 -26.88023438 19.57296875 -25.94921875 18.7734375 C-24.52029297 17.58621094 -24.52029297 17.58621094 -23.0625 16.375 C-22.14082031 15.60414062 -21.21914063 14.83328125 -20.26953125 14.0390625 C-18.43541178 12.52313301 -16.59040717 11.02027016 -14.734375 9.53125 C-12.99070692 8.12407927 -11.27030507 6.68743459 -9.578125 5.21875 C-3.98357008 0.48778409 -3.98357008 0.48778409 0 0 Z " fill="#FFF5F5" transform="translate(49.0625,7.625)"/>
<path d="M0 0 C3.267452 2.15354791 4.89764519 3.32152362 6.75 6.8125 C7.54771133 13.27485812 7.64557167 18.39419888 3.75 23.8125 C-0.71413961 27.83022565 -4.04235933 29.18330778 -10.12109375 29.09375 C-14.75069119 28.48213346 -18.05546008 26.12264056 -21.1875 22.6875 C-22.99968266 17.78394691 -23.18898161 12.76358507 -21.59375 7.75 C-17.22087808 -0.99574383 -8.83454775 -3.22800783 0 0 Z " fill="#FF0809" transform="translate(550.25,133.1875)"/>
<path d="M0 0 C3.7661749 2.53807439 6.72808476 4.87159546 8.875 8.9375 C9.89184407 14.2451179 9.51293241 18.5085314 7.3125 23.4375 C3.44202344 27.40721955 -0.23931391 28.70592452 -5.6875 29.375 C-11.3327731 28.6565107 -15.69411209 25.37226644 -19.203125 20.90625 C-21.27303691 16.48576016 -20.93818036 11.64878302 -20.125 6.9375 C-18.52398885 3.64723299 -16.21874784 1.76723974 -13.3125 -0.4375 C-8.6045929 -1.78261632 -4.5522669 -1.54777074 0 0 Z " fill="#FDF5F5" transform="translate(802.125,269.0625)"/>
<path d="M0 0 C7.92 0 15.84 0 24 0 C24 1.98 24 3.96 24 6 C18.72 6 13.44 6 8 6 C8 8.97 8 11.94 8 15 C12.29 15 16.58 15 21 15 C21 16.98 21 18.96 21 21 C16.71 21 12.42 21 8 21 C8 24.63 8 28.26 8 32 C13.61 32 19.22 32 25 32 C25 33.98 25 35.96 25 38 C16.75 38 8.5 38 0 38 C0 25.46 0 12.92 0 0 Z " fill="#FF0A07" transform="translate(357,123)"/>
<path d="M0 0 C2.31 0 4.62 0 7 0 C7.33 4.95 7.66 9.9 8 15 C9.32 14.34 10.64 13.68 12 13 C17.42944122 12.56909197 20.52316361 12.60845728 25 16 C26 17 26 17 26.11352539 19.40844727 C26.10828857 20.45057373 26.10305176 21.4927002 26.09765625 22.56640625 C26.09443359 23.69111328 26.09121094 24.81582031 26.08789062 25.97460938 C26.07951172 27.15861328 26.07113281 28.34261719 26.0625 29.5625 C26.05798828 30.75037109 26.05347656 31.93824219 26.04882812 33.16210938 C26.03699675 36.10812226 26.02051287 39.05403681 26 42 C23.69 42 21.38 42 19 42 C18.97494385 41.3387915 18.9498877 40.67758301 18.92407227 39.99633789 C18.80846898 37.01817695 18.68558246 34.0403608 18.5625 31.0625 C18.52318359 30.02158203 18.48386719 28.98066406 18.44335938 27.90820312 C18.40146484 26.91884766 18.35957031 25.92949219 18.31640625 24.91015625 C18.27974854 23.99371338 18.24309082 23.07727051 18.20532227 22.13305664 C18.22996136 20.0179272 18.22996136 20.0179272 17 19 C14.03 19 11.06 19 8 19 C8 26.59 8 34.18 8 42 C5.36 42 2.72 42 0 42 C0 28.14 0 14.28 0 0 Z " fill="#FF110B" transform="translate(465,119)"/>
<path d="M0 0 C1.25167969 0.00644531 2.50335937 0.01289062 3.79296875 0.01953125 C6.8125 0.1875 6.8125 0.1875 7.8125 1.1875 C7.8125 3.1675 7.8125 5.1475 7.8125 7.1875 C2.8625 7.1875 -2.0875 7.1875 -7.1875 7.1875 C-7.1875 9.1675 -7.1875 11.1475 -7.1875 13.1875 C-6.3625 13.414375 -5.5375 13.64125 -4.6875 13.875 C0.5149728 15.8259273 6.34036202 18.70091206 9.8125 23.1875 C10.55870723 26.92432073 10.49686131 30.44267489 9.8125 34.1875 C7.84803258 37.11194988 5.35584315 38.67305228 1.984375 39.796875 C-0.76750885 40.29181814 -3.39209599 40.31948851 -6.1875 40.3125 C-7.21875 40.31507813 -8.25 40.31765625 -9.3125 40.3203125 C-11.78407009 40.20613671 -13.8317958 39.90100656 -16.1875 39.1875 C-15.8575 36.8775 -15.5275 34.5675 -15.1875 32.1875 C-14.64351563 32.34992188 -14.09953125 32.51234375 -13.5390625 32.6796875 C-10.82499185 33.26578249 -8.33787987 33.31998081 -5.5625 33.3125 C-4.12003906 33.31636719 -4.12003906 33.31636719 -2.6484375 33.3203125 C-0.18275231 33.35111083 -0.18275231 33.35111083 1.8125 32.1875 C1.8125 30.5375 1.8125 28.8875 1.8125 27.1875 C0.83667969 26.66800781 -0.13914062 26.14851563 -1.14453125 25.61328125 C-2.43005598 24.90952684 -3.71519203 24.20506211 -5 23.5 C-5.64259766 23.16033203 -6.28519531 22.82066406 -6.94726562 22.47070312 C-10.91393096 20.27156742 -13.29538027 18.48590242 -15.1875 14.1875 C-15.70884272 10.01675823 -15.67360949 7.9687474 -13.4375 4.375 C-9.14325973 0.20004418 -5.95697486 -0.06790334 0 0 Z " fill="#FF0807" transform="translate(513.1875,121.8125)"/>
<path d="M0 0 C2.97 0 5.94 0 9 0 C9.65077296 2.04009755 10.29539824 4.08215669 10.9375 6.125 C11.29714844 7.26195312 11.65679687 8.39890625 12.02734375 9.5703125 C13 13 13 13 14 19 C16.475 9.595 16.475 9.595 19 0 C21.64 0 24.28 0 27 0 C25.13220031 6.72711596 22.82371972 13.18994961 20.25390625 19.6796875 C19.02903221 22.92312342 18.00640327 26.18335117 17 29.5 C15.47410571 34.10199992 14.15357038 37.19875486 10 40 C6.1875 40.8125 6.1875 40.8125 3 41 C2.67 39.35 2.34 37.7 2 36 C2.969375 35.525625 3.93875 35.05125 4.9375 34.5625 C7.80477437 33.29806053 7.80477437 33.29806053 9 32 C9.83043868 23.69561318 7.21773791 17.56578601 4 10 C3.22514658 8.06410423 2.45386884 6.12677025 1.6875 4.1875 C1.12591217 2.79129942 0.56379392 1.39531121 0 0 Z " fill="#FF0909" transform="translate(401,133)"/>
<path d="M0 0 C0 1.65 0 3.3 0 5 C-1.98 5.33 -3.96 5.66 -6 6 C-6.66 9.3 -7.32 12.6 -8 16 C-5.69 16 -3.38 16 -1 16 C-1 17.65 -1 19.3 -1 21 C-3.31 21 -5.62 21 -8 21 C-8 28.26 -8 35.52 -8 43 C-10.31 43 -12.62 43 -15 43 C-15 35.74 -15 28.48 -15 21 C-16.32 21 -17.64 21 -19 21 C-19 19.35 -19 17.7 -19 16 C-17.35 16 -15.7 16 -14 16 C-14.04640625 15.41992188 -14.0928125 14.83984375 -14.140625 14.2421875 C-14.40163091 8.5932739 -13.80594158 5.47757833 -10 1 C-6.78548731 -0.60725635 -3.56387464 -0.05748185 0 0 Z " fill="#FF0B06" transform="translate(581,118)"/>
<path d="M0 0 C-0.33 2.97 -0.66 5.94 -1 9 C1.64 9 4.28 9 7 9 C7 10.65 7 12.3 7 14 C4.36 14 1.72 14 -1 14 C-0.85941524 16.45873768 -0.71277001 18.91685175 -0.5625 21.375 C-0.52318359 22.07367188 -0.48386719 22.77234375 -0.44335938 23.4921875 C-0.25719866 27.37360492 -0.25719866 27.37360492 1 31 C4.02934491 31.65772428 4.02934491 31.65772428 7 32 C7 33.32 7 34.64 7 36 C3.86128812 37.56935594 1.46144178 37.35201103 -2 37 C-5.15954305 34.45862841 -6.71540886 32.85377341 -8 29 C-8.07029121 26.42734182 -8.09370832 23.88358569 -8.0625 21.3125 C-8.05798828 20.61060547 -8.05347656 19.90871094 -8.04882812 19.18554688 C-8.03706927 17.45699462 -8.01913454 15.72848635 -8 14 C-9.32 14 -10.64 14 -12 14 C-12 12.35 -12 10.7 -12 9 C-10.35 9 -8.7 9 -7 9 C-7 6.36 -7 3.72 -7 1 C-4 0 -4 0 0 0 Z " fill="#FF0D09" transform="translate(595,125)"/>
<path d="M0 0 C0 2.64 0 5.28 0 8 C0.66 8.33 1.32 8.66 2 9 C-12.19 9 -26.38 9 -41 9 C-40.67 7.02 -40.34 5.04 -40 3 C-35.77224241 2.4875996 -31.54262493 1.99244244 -27.3125 1.5 C-25.54422852 1.28537109 -25.54422852 1.28537109 -23.74023438 1.06640625 C-15.78869775 0.15143491 -8.0017033 -0.18028246 0 0 Z " fill="#D64440" transform="translate(860,373)"/>
<path d="M0 0 C0 13.86 0 27.72 0 42 C-2.31 42 -4.62 42 -7 42 C-7 28.47 -7 14.94 -7 1 C-5 0 -5 0 0 0 Z " fill="#FF0900" transform="translate(396,119)"/>
<path d="M0 0 C2.64 0 5.28 0 8 0 C8 12.87 8 25.74 8 39 C6.02 39 4.04 39 2 39 C0.78381162 25.98257939 -0.37739565 13.08304907 0 0 Z " fill="#E53D39" transform="translate(714,262)"/>
<path d="M0 0 C11 0 11 0 14.1875 1.5625 C16 4 16 4 16.625 7.4375 C16 11 16 11 13.9375 14 C11 16 11 16 7.1875 15.8125 C6.135625 15.544375 5.08375 15.27625 4 15 C4 17.64 4 20.28 4 23 C2.68 23 1.36 23 0 23 C0 15.41 0 7.82 0 0 Z " fill="#FF0F0D" transform="translate(170,411)"/>
<path d="M0 0 C2.36125898 1.82807147 2.8881527 3.15720698 3.27734375 6.08984375 C3.4289907 9.73543653 3.16121073 12.54481677 1.9375 16 C0 18 0 18 -3.4375 19.125 C-7 19 -7 19 -9.4375 17.25 C-11.72157978 12.49911405 -11.77155736 8.17818394 -11 3 C-8.20814937 -1.91365711 -5.11881627 -1.48911019 0 0 Z " fill="#FFF9F7" transform="translate(547,138)"/>
<path d="M0 0 C11.625 -0.125 11.625 -0.125 15 1 C16.155 0.814375 17.31 0.62875 18.5 0.4375 C22 0 22 0 25 2 C25.29296875 5.2578125 25.29296875 5.2578125 25.1875 9.125 C25.16042969 10.40632813 25.13335937 11.68765625 25.10546875 13.0078125 C25.07066406 13.99523437 25.03585938 14.98265625 25 16 C23.68 16 22.36 16 21 16 C20.67 12.04 20.34 8.08 20 4 C18.68 4 17.36 4 16 4 C15.67 7.96 15.34 11.92 15 16 C13.68 16 12.36 16 11 16 C10.67 12.04 10.34 8.08 10 4 C8.68 4 7.36 4 6 4 C5.67 7.96 5.34 11.92 5 16 C3.68 16 2.36 16 1 16 C0.67 10.72 0.34 5.44 0 0 Z " fill="#FF0811" transform="translate(141,411)"/>
<path d="M0 0 C0.70125 0.06703125 1.4025 0.1340625 2.125 0.203125 C4 0.75 4 0.75 6 3.75 C6.3350232 6.76520879 6.56604719 8.84973758 6 11.75 C3.45767292 14.74097304 1.8425303 15.59202557 -2 16.3125 C-6.10389613 15.54301948 -7.53959272 14.07878632 -10 10.75 C-10.5625 7.6875 -10.5625 7.6875 -10 4.75 C-6.93765369 0.97310622 -4.81779066 -0.53137397 0 0 Z " fill="#FF100A" transform="translate(207,411.25)"/>
<path d="M0 0 C2.475 0.495 2.475 0.495 5 1 C5.66 3.31 6.32 5.62 7 8 C8.32 5.36 9.64 2.72 11 0 C12.32 0 13.64 0 15 0 C16.42258812 3.82320557 17.24042276 6.91281305 17 11 C17.66 11 18.32 11 19 11 C19.2165625 9.1128125 19.2165625 9.1128125 19.4375 7.1875 C19.73748686 4.57332877 20.15813297 2.52560108 21 0 C22.32 0 23.64 0 25 0 C23.41078475 5.36095277 21.81027062 10.70843973 20 16 C17.525 15.505 17.525 15.505 15 15 C14.34 11.7 13.68 8.4 13 5 C12.34 5 11.68 5 11 5 C10.7834375 6.60875 10.7834375 6.60875 10.5625 8.25 C10.16250558 10.91662949 9.72408076 13.41399729 9 16 C7.68 16 6.36 16 5 16 C4.1605118 13.89828133 3.32860344 11.79353375 2.5 9.6875 C2.0359375 8.51574219 1.571875 7.34398437 1.09375 6.13671875 C0 3 0 3 0 0 Z " fill="#FF1111" transform="translate(498,411)"/>
<path d="M0 0 C2.31 0 4.62 0 7 0 C7.33 0.99 7.66 1.98 8 3 C7.01 3.99 6.02 4.98 5 6 C5.61488281 5.89300781 6.22976563 5.78601563 6.86328125 5.67578125 C8.07564453 5.49595703 8.07564453 5.49595703 9.3125 5.3125 C10.11300781 5.18488281 10.91351562 5.05726563 11.73828125 4.92578125 C14 5 14 5 15.75 6.21875 C17.89509214 9.27550631 17.6992026 12.33027177 18 16 C14.81237635 18.12508244 12.73487777 18.5020163 9 19 C8.67 17.68 8.34 16.36 8 15 C8.99 14.34 9.98 13.68 11 13 C11.33 12.01 11.66 11.02 12 10 C11.113125 10.515625 10.22625 11.03125 9.3125 11.5625 C5.79309257 13.08979002 4.548875 13.21675714 1 12 C0 11 0 11 -0.0625 7.4375 C-0.041875 6.303125 -0.02125 5.16875 0 4 C-0.66 4 -1.32 4 -2 4 C-1.34 2.68 -0.68 1.36 0 0 Z " fill="#E64542" transform="translate(788,274)"/>
<path d="M0 0 C4.62 0 9.24 0 14 0 C14 0.99 14 1.98 14 3 C11.03 3 8.06 3 5 3 C5 4.98 5 6.96 5 9 C7.31 9 9.62 9 12 9 C12 9.99 12 10.98 12 12 C9.69 12 7.38 12 5 12 C5 14.31 5 16.62 5 19 C7.97 19 10.94 19 14 19 C14 19.99 14 20.98 14 22 C9.38 22 4.76 22 0 22 C0 14.74 0 7.48 0 0 Z " fill="#FF1715" transform="translate(124,405)"/>
<path d="M0 0 C2.9375 2.0625 2.9375 2.0625 5 5 C5.06641554 8.85210127 4.87229157 10.99848005 2.3125 13.9375 C-0.73602877 15.33817538 -2.67926952 15.4842732 -6 15 C-8.375 13.4375 -8.375 13.4375 -10 11 C-10.56783945 7.02512383 -10.62340519 4.93510779 -8.375 1.5625 C-5.24316508 -0.49791771 -3.68455227 -0.6767545 0 0 Z " fill="#FFF5F5" transform="translate(496,250)"/>
<path d="M0 0 C7.25388601 -0.3626943 7.25388601 -0.3626943 10.25 1.09375 C12.81363206 3.88627778 12.39712675 5.97254967 12.25 9.6875 C12.21390625 10.86699219 12.1778125 12.04648437 12.140625 13.26171875 C12.07101562 14.61716797 12.07101562 14.61716797 12 16 C10.22950311 16.05410687 8.45853151 16.09284119 6.6875 16.125 C5.20830078 16.15980469 5.20830078 16.15980469 3.69921875 16.1953125 C1 16 1 16 -2 14 C-1.75 11.125 -1.75 11.125 -1 8 C1.85510619 5.75670228 4.45987077 5.80332615 8 6 C7.67 5.34 7.34 4.68 7 4 C4.36 4 1.72 4 -1 4 C-0.67 2.68 -0.34 1.36 0 0 Z " fill="#FF0D0F" transform="translate(789,411)"/>
<path d="M0 0 C7.25388601 -0.3626943 7.25388601 -0.3626943 10.25 1.09375 C12.81363206 3.88627778 12.39712675 5.97254967 12.25 9.6875 C12.21390625 10.86699219 12.1778125 12.04648437 12.140625 13.26171875 C12.07101562 14.61716797 12.07101562 14.61716797 12 16 C10.22950311 16.05410687 8.45853151 16.09284119 6.6875 16.125 C5.20830078 16.15980469 5.20830078 16.15980469 3.69921875 16.1953125 C1 16 1 16 -2 14 C-1.75 11.125 -1.75 11.125 -1 8 C1.85510619 5.75670228 4.45987077 5.80332615 8 6 C7.67 5.34 7.34 4.68 7 4 C4.36 4 1.72 4 -1 4 C-0.67 2.68 -0.34 1.36 0 0 Z " fill="#FF0D0F" transform="translate(763,411)"/>
<path d="M0 0 C1.65 0 3.3 0 5 0 C6.65 4.95 8.3 9.9 10 15 C11.65 10.05 13.3 5.1 15 0 C16.32 0 17.64 0 19 0 C18.35983027 5.13756468 16.80299667 9.58790181 14.9375 14.375 C14.65583984 15.11105469 14.37417969 15.84710938 14.08398438 16.60546875 C13.39433382 18.4055736 12.69786068 20.2030621 12 22 C10.35 22 8.7 22 7 22 C5.82828244 18.71010914 4.66348912 15.41780898 3.5 12.125 C3.16613281 11.18785156 2.83226562 10.25070312 2.48828125 9.28515625 C2.17246094 8.38925781 1.85664063 7.49335938 1.53125 6.5703125 C1.23798828 5.74289551 0.94472656 4.91547852 0.64257812 4.06298828 C0 2 0 2 0 0 Z " fill="#FF0D0C" transform="translate(452,405)"/>
<path d="M0 0 C13.375 0 13.375 0 20 1 C20 5.29 20 9.58 20 14 C19.01 14 18.02 14 17 14 C16.505 9.05 16.505 9.05 16 4 C15.01 4 14.02 4 13 4 C12.67 7.3 12.34 10.6 12 14 C11.01 14 10.02 14 9 14 C8.67 10.7 8.34 7.4 8 4 C7.01 4 6.02 4 5 4 C4.67 7.3 4.34 10.6 4 14 C2.68 14 1.36 14 0 14 C0 9.38 0 4.76 0 0 Z " fill="#FFF5F7" transform="translate(129,35)"/>
<path d="M0 0 C3.61546049 0.69232222 4.82975302 1.56301391 6.9375 4.5625 C6.9375 6.2125 6.9375 7.8625 6.9375 9.5625 C3.6375 9.8925 0.3375 10.2225 -3.0625 10.5625 C-3.0625 11.2225 -3.0625 11.8825 -3.0625 12.5625 C-0.0925 12.8925 2.8775 13.2225 5.9375 13.5625 C5.6075 14.5525 5.2775 15.5425 4.9375 16.5625 C-2.14108428 17.04240402 -2.14108428 17.04240402 -6.0625 15 C-8.0625 12.5625 -8.0625 12.5625 -8.6875 9.125 C-7.74345694 3.74395455 -5.45788454 1.00246859 0 0 Z " fill="#FF0F10" transform="translate(489.0625,410.4375)"/>
<path d="M0 0 C3.61546049 0.69232222 4.82975302 1.56301391 6.9375 4.5625 C6.9375 6.2125 6.9375 7.8625 6.9375 9.5625 C3.6375 9.8925 0.3375 10.2225 -3.0625 10.5625 C-3.0625 11.2225 -3.0625 11.8825 -3.0625 12.5625 C-0.0925 12.8925 2.8775 13.2225 5.9375 13.5625 C5.6075 14.5525 5.2775 15.5425 4.9375 16.5625 C-2.14108428 17.04240402 -2.14108428 17.04240402 -6.0625 15 C-8.0625 12.5625 -8.0625 12.5625 -8.6875 9.125 C-7.74345694 3.74395455 -5.45788454 1.00246859 0 0 Z " fill="#FF0F10" transform="translate(258.0625,410.4375)"/>
<path d="M0 0 C3.61546049 0.69232222 4.82975302 1.56301391 6.9375 4.5625 C6.9375 6.2125 6.9375 7.8625 6.9375 9.5625 C3.6375 9.8925 0.3375 10.2225 -3.0625 10.5625 C-3.0625 11.2225 -3.0625 11.8825 -3.0625 12.5625 C-0.0925 12.8925 2.8775 13.2225 5.9375 13.5625 C5.6075 14.5525 5.2775 15.5425 4.9375 16.5625 C-2.14108428 17.04240402 -2.14108428 17.04240402 -6.0625 15 C-8.0625 12.5625 -8.0625 12.5625 -8.6875 9.125 C-7.74345694 3.74395455 -5.45788454 1.00246859 0 0 Z " fill="#FF0F10" transform="translate(241.0625,410.4375)"/>
<path d="M0 0 C0 1.32 0 2.64 0 4 C-2.64 4 -5.28 4 -8 4 C-8 4.99 -8 5.98 -8 7 C-7.43410156 7.27714844 -6.86820313 7.55429687 -6.28515625 7.83984375 C-5.55167969 8.20207031 -4.81820312 8.56429688 -4.0625 8.9375 C-2.96615234 9.47697266 -2.96615234 9.47697266 -1.84765625 10.02734375 C0 11 0 11 1 12 C1.3125 15.375 1.3125 15.375 1 19 C-1.17520946 21.20535093 -2.485882 21.9415775 -5.578125 22.29296875 C-6.45984375 22.25816406 -7.3415625 22.22335937 -8.25 22.1875 C-9.14203125 22.16042969 -10.0340625 22.13335937 -10.953125 22.10546875 C-11.62859375 22.07066406 -12.3040625 22.03585937 -13 22 C-13.33 21.34 -13.66 20.68 -14 20 C-12 18 -12 18 -10.0546875 17.8046875 C-8.03645833 17.86979167 -6.01822917 17.93489583 -4 18 C-4.03955898 16.07690578 -4.03955898 16.07690578 -5 14 C-7.91666667 12.33333333 -7.91666667 12.33333333 -11 11 C-13 9 -13 9 -13.375 6.0625 C-13 3 -13 3 -11.5625 1.125 C-7.74855449 -0.5494151 -4.10420515 -0.23678107 0 0 Z " fill="#FF0D0D" transform="translate(757,405)"/>
<path d="M0 0 C2.4375 1.5625 2.4375 1.5625 4 4 C3.93866496 7.4960972 3.65265114 9.93514814 1.8125 12.9375 C-0.92243127 14.54073557 -2.8903393 14.38077478 -6 14 C-8.375 13 -8.375 13 -10 11 C-10.56641498 8.22572253 -10.56641498 5.77427747 -10 3 C-7.21052771 -0.43319666 -4.246332 -0.61925675 0 0 Z " fill="#FFE8E9" transform="translate(123,35)"/>
<path d="M0 0 C1.32 0 2.64 0 4 0 C4 2.31 4 4.62 4 7 C5.98 7 7.96 7 10 7 C10 4.69 10 2.38 10 0 C11.32 0 12.64 0 14 0 C14 5.94 14 11.88 14 18 C12.68 18 11.36 18 10 18 C10 15.36 10 12.72 10 10 C8.02 10 6.04 10 4 10 C4 12.64 4 15.28 4 18 C2.68 18 1.36 18 0 18 C0 12.06 0 6.12 0 0 Z " fill="#FFF1E9" transform="translate(96,31)"/>
<path d="M0 0 C1.11246094 -0.00515625 2.22492187 -0.0103125 3.37109375 -0.015625 C6.509509 0.24558949 8.73085425 0.91621546 11.5625 2.25 C11.5625 4.56 11.5625 6.87 11.5625 9.25 C10.9025 8.92 10.2425 8.59 9.5625 8.25 C9.5625 6.27 9.5625 4.29 9.5625 2.25 C3.9525 2.25 -1.6575 2.25 -7.4375 2.25 C-7.4375 10.17 -7.4375 18.09 -7.4375 26.25 C-1.8275 26.25 3.7825 26.25 9.5625 26.25 C9.5625 24.27 9.5625 22.29 9.5625 20.25 C10.2225 20.25 10.8825 20.25 11.5625 20.25 C11.75 23.125 11.75 23.125 11.5625 26.25 C7.82582113 28.74111925 4.88379024 28.54613477 0.5625 28.5 C-0.52417969 28.51160156 -0.52417969 28.51160156 -1.6328125 28.5234375 C-5.43138493 28.50942063 -7.20587084 28.40441944 -10.4375 26.25 C-10.77807617 23.81982422 -10.77807617 23.81982422 -10.73046875 20.8046875 C-10.72080078 19.72832031 -10.71113281 18.65195312 -10.70117188 17.54296875 C-10.67603516 16.41503906 -10.65089844 15.28710938 -10.625 14.125 C-10.61146484 12.98933594 -10.59792969 11.85367188 -10.58398438 10.68359375 C-10.54854319 7.87192613 -10.49913517 5.06119583 -10.4375 2.25 C-6.78618686 0.26491573 -4.18293828 -0.01934307 0 0 Z " fill="#FFD5D5" transform="translate(884.4375,28.75)"/>
<path d="M0 0 C1.65 0 3.3 0 5 0 C5.66 2.97 6.32 5.94 7 9 C7.66 9 8.32 9 9 9 C9.66 6.03 10.32 3.06 11 0 C12.32 0 13.64 0 15 0 C14.31677404 2.09626147 13.62313277 4.18833671 12.91796875 6.27734375 C12.28283673 8.1611183 11.66131182 10.04951522 11.05078125 11.94140625 C10.72464844 12.90949219 10.39851562 13.87757813 10.0625 14.875 C9.61583984 16.23238281 9.61583984 16.23238281 9.16015625 17.6171875 C7.8210827 20.36747325 6.63929685 21.48753767 4 23 C3.01 23 2.02 23 1 23 C1 22.01 1 21.02 1 20 C2.32 19.67 3.64 19.34 5 19 C3.83795007 12.45150687 2.26616615 6.25461856 0 0 Z " fill="#FF1515" transform="translate(817,411)"/>
<path d="M0 0 C1.65 0 3.3 0 5 0 C5.66 2.97 6.32 5.94 7 9 C7.66 9 8.32 9 9 9 C9.66 6.03 10.32 3.06 11 0 C12.32 0 13.64 0 15 0 C14.31677404 2.09626147 13.62313277 4.18833671 12.91796875 6.27734375 C12.28283673 8.1611183 11.66131182 10.04951522 11.05078125 11.94140625 C10.72464844 12.90949219 10.39851562 13.87757813 10.0625 14.875 C9.61583984 16.23238281 9.61583984 16.23238281 9.16015625 17.6171875 C7.8210827 20.36747325 6.63929685 21.48753767 4 23 C3.01 23 2.02 23 1 23 C1 22.01 1 21.02 1 20 C2.32 19.67 3.64 19.34 5 19 C3.83795007 12.45150687 2.26616615 6.25461856 0 0 Z " fill="#FF1515" transform="translate(216,411)"/>
<path d="M0 0 C1.76150391 -0.02126953 1.76150391 -0.02126953 3.55859375 -0.04296875 C6.5625 0.1875 6.5625 0.1875 8.5625 2.1875 C8.375 4.6875 8.375 4.6875 7.5625 7.1875 C4.440498 9.26883467 3.62983011 9.4612822 0.0625 9.4375 C-1.09765625 9.44523438 -1.09765625 9.44523438 -2.28125 9.453125 C-4.4375 9.1875 -4.4375 9.1875 -7.4375 7.1875 C-7.6875 4.125 -7.6875 4.125 -7.4375 1.1875 C-5.56506019 -0.68493981 -2.50090482 0.01369608 0 0 Z " fill="#FFF7F4" transform="translate(444.4375,161.8125)"/>
<path d="M0 0 C1.875 1.1875 1.875 1.1875 3 3 C3.1875 5.6875 3.1875 5.6875 3 8 C0.36 8.33 -2.28 8.66 -5 9 C-3.81575674 10.41577477 -3.81575674 10.41577477 -0.4375 10.0625 C1.2640625 10.0315625 1.2640625 10.0315625 3 10 C2.67 11.32 2.34 12.64 2 14 C-1.46093134 14.19966912 -4.2014503 14.32761013 -7.4375 13 C-9.55872046 10.28483781 -9.50876791 8.25063681 -9.31640625 4.875 C-9 3 -9 3 -7.875 1 C-5.10184376 -0.47901666 -3.08815875 -0.38601984 0 0 Z " fill="#FFDFDF" transform="translate(161,35)"/>
<path d="M0 0 C1.65 0 3.3 0 5 0 C5 7.92 5 15.84 5 24 C3.35 24 1.7 24 0 24 C0 16.08 0 8.16 0 0 Z " fill="#FF2C2B" transform="translate(779,403)"/>
<path d="M0 0 C1.65 0 3.3 0 5 0 C5 7.92 5 15.84 5 24 C3.35 24 1.7 24 0 24 C0 16.08 0 8.16 0 0 Z " fill="#FF2C2B" transform="translate(189,403)"/>
<path d="M0 0 C2.01822917 0.06510417 4.03645833 0.13020833 6.0546875 0.1953125 C6.0546875 1.5153125 6.0546875 2.8353125 6.0546875 4.1953125 C3.7446875 3.8653125 1.4346875 3.5353125 -0.9453125 3.1953125 C1.42088761 5.81058631 3.9967355 7.45971812 7.0546875 9.1953125 C6.7421875 11.5703125 6.7421875 11.5703125 6.0546875 14.1953125 C2.96580228 16.25456931 2.34532823 16.4343499 -1.1328125 16.3203125 C-2.3909375 16.2790625 -3.6490625 16.2378125 -4.9453125 16.1953125 C-4.9453125 14.8753125 -4.9453125 13.5553125 -4.9453125 12.1953125 C-2.3053125 12.5253125 0.3346875 12.8553125 3.0546875 13.1953125 C0.58527694 10.59593296 -2.12592133 8.40510558 -4.9453125 6.1953125 C-3.78219775 0.37973873 -3.78219775 0.37973873 0 0 Z " fill="#FF1413" transform="translate(271.9453125,410.8046875)"/>
<path d="M0 0 C2.64 1.98 5.28 3.96 8 6 C5.80682128 10.38635744 4.08649371 11.51256905 0 14 C0 12.68 0 11.36 0 10 C-2.64 10 -5.28 10 -8 10 C-8 8.02 -8 6.04 -8 4 C-5.36 4 -2.72 4 0 4 C0 2.68 0 1.36 0 0 Z " fill="#FFF8F8" transform="translate(889,36)"/>
<path d="M0 0 C0 0.66 0 1.32 0 2 C-0.66 2 -1.32 2 -2 2 C-2 3.32 -2 4.64 -2 6 C-2.99 6.495 -2.99 6.495 -4 7 C-3.01 7.66 -2.02 8.32 -1 9 C-1.375 11.4375 -1.375 11.4375 -2 14 C-4.70879335 15.35439668 -7.00933268 15.06501451 -10 15 C-11.12115979 11.63652064 -10.83325195 9.41633299 -10 6 C-9.814375 5.071875 -9.62875 4.14375 -9.4375 3.1875 C-9.293125 2.465625 -9.14875 1.74375 -9 1 C-5.94152152 0.45627049 -3.11227195 0 0 0 Z " fill="#FFBBC5" transform="translate(935,38)"/>
<path d="M0 0 C6.57692308 0.57692308 6.57692308 0.57692308 8 2 C8.37086093 7.8410596 8.37086093 7.8410596 8 10 C4.77856724 12.14762184 3.7404533 12.561068 0 12 C-1.875 10.375 -1.875 10.375 -3 8 C-2.77962372 4.32706204 -2.63033454 2.63033454 0 0 Z " fill="#FFF2F5" transform="translate(441,136)"/>
<path d="M0 0 C1.32 0 2.64 0 4 0 C4 0.66 4 1.32 4 2 C4.99 1.34 5.98 0.68 7 0 C8.32 0 9.64 0 11 0 C11 1.65 11 3.3 11 5 C9.35 5 7.7 5 6 5 C5.67 8.63 5.34 12.26 5 16 C3.68 16 2.36 16 1 16 C0.67 10.72 0.34 5.44 0 0 Z " fill="#FF0A0F" transform="translate(804,411)"/>
<path d="M0 0 C2 2 2 2 2.25 4.5 C2 7 2 7 0 9 C-3.625 8.625 -3.625 8.625 -7 8 C-7.6875 5.6875 -7.6875 5.6875 -8 3 C-5.93469402 -0.32743741 -3.72952011 -0.4781436 0 0 Z " fill="#FFE5E9" transform="translate(921,39)"/>
<path d="M0 0 C2.5 0.25 2.5 0.25 4.5 2.25 C4.75 4.75 4.75 4.75 4.5 7.25 C3.84 7.91 3.18 8.57 2.5 9.25 C-1.125 8.875 -1.125 8.875 -4.5 8.25 C-4.625 5.375 -4.625 5.375 -4.5 2.25 C-2.5 0.25 -2.5 0.25 0 0 Z " fill="#FFE8E9" transform="translate(940.5,38.75)"/>
<path d="M0 0 C4.875 0.875 4.875 0.875 6 2 C6.1875 4.9375 6.1875 4.9375 6 8 C5.34 8.66 4.68 9.32 4 10 C1.375 9.625 1.375 9.625 -1 9 C-1.625 6.1875 -1.625 6.1875 -2 3 C-1.34 2.01 -0.68 1.02 0 0 Z " fill="#FFEEF4" transform="translate(203,414)"/>
<path d="M0 0 C1.32 0 2.64 0 4 0 C4 5.28 4 10.56 4 16 C2.68 16 1.36 16 0 16 C0 10.72 0 5.44 0 0 Z " fill="#FF0B15" transform="translate(474,411)"/>
<path d="M0 0 C4.70588235 0.70588235 4.70588235 0.70588235 6 2 C6.1875 4.9375 6.1875 4.9375 6 8 C4 10 4 10 1.375 10.125 C0.59125 10.08375 -0.1925 10.0425 -1 10 C-1.02689216 8.52093108 -1.04634621 7.04172517 -1.0625 5.5625 C-1.07410156 4.73878906 -1.08570313 3.91507812 -1.09765625 3.06640625 C-1 1 -1 1 0 0 Z " fill="#FFEFF8" transform="translate(175,414)"/>
<path d="M0 0 C2.31 0 4.62 0 7 0 C6.52433594 0.82757813 6.52433594 0.82757813 6.0390625 1.671875 C4.87290025 4.28477989 4.59954289 6.40579002 4.375 9.25 C4.30023438 10.14203125 4.22546875 11.0340625 4.1484375 11.953125 C4.09945312 12.62859375 4.05046875 13.3040625 4 14 C2.68 14 1.36 14 0 14 C0 9.38 0 4.76 0 0 Z " fill="#FFDAE1" transform="translate(129,35)"/>
<path d="M0 0 C0.66 0.33 1.32 0.66 2 1 C-1.51045602 7.51941831 -8.21613951 14.44524534 -15.34375 16.76171875 C-15.8903125 16.84035156 -16.436875 16.91898438 -17 17 C-14.53777932 12.06640541 -10.98245687 9.12970111 -6.8125 5.6875 C-6.15830078 5.13771484 -5.50410156 4.58792969 -4.83007812 4.02148438 C-3.2254495 2.67453334 -1.61345013 1.33637151 0 0 Z " fill="#FF1B1B" transform="translate(45,17)"/>
<path d="M0 0 C0.66 0 1.32 0 2 0 C2.33 1.98 2.66 3.96 3 6 C3.99 6.33 4.98 6.66 6 7 C6 4.69 6 2.38 6 0 C6.99 0 7.98 0 9 0 C9 2.97 9 5.94 9 9 C2.84765625 9.09765625 2.84765625 9.09765625 1 9 C0 8 0 8 -0.09765625 6.15234375 C-0.06510417 4.1015625 -0.03255208 2.05078125 0 0 Z " fill="#FFE7E0" transform="translate(947,39)"/>
<path d="M0 0 C0.99 0 1.98 0 3 0 C3 3.63 3 7.26 3 11 C4.98 11 6.96 11 9 11 C9 11.66 9 12.32 9 13 C6.03 13 3.06 13 0 13 C0 8.71 0 4.42 0 0 Z " fill="#FFD8E1" transform="translate(904,35)"/>
<path d="M0 0 C0.66 0 1.32 0 2 0 C2 0.99 2 1.98 2 3 C2.66 3 3.32 3 4 3 C4 3.66 4 4.32 4 5 C3.34 5 2.68 5 2 5 C2 6.65 2 8.3 2 10 C2.99 10 3.98 10 5 10 C5 10.66 5 11.32 5 12 C3.35 11.67 1.7 11.34 0 11 C-2 5.25 -2 5.25 -2 3 C-1.34 3 -0.68 3 0 3 C0 2.01 0 1.02 0 0 Z " fill="#FFE0E2" transform="translate(959,36)"/>
<path d="M0 0 C2.0625 0.4375 2.0625 0.4375 4 1 C5.125 5.75 5.125 5.75 4 8 C2.35 7.67 0.7 7.34 -1 7 C-1.04254356 5.00045254 -1.04080783 2.99958364 -1 1 C-0.67 0.67 -0.34 0.34 0 0 Z " fill="#FF0B09" transform="translate(118,38)"/>
<path d="M0 0 C1.134375 0.020625 2.26875 0.04125 3.4375 0.0625 C3.7675 1.3825 4.0975 2.7025 4.4375 4.0625 C1.72870665 5.41689668 -0.57183268 5.12751451 -3.5625 5.0625 C-4.125 3.125 -4.125 3.125 -4.5625 1.0625 C-3.5625 0.0625 -3.5625 0.0625 0 0 Z " fill="#FF959B" transform="translate(928.5625,47.9375)"/>
<path d="M0 0 C1.32 0 2.64 0 4 0 C3.54738642 1.43931117 3.08767021 2.87638999 2.625 4.3125 C2.36976563 5.11300781 2.11453125 5.91351563 1.8515625 6.73828125 C1 9 1 9 -1 12 C-1.33 11.67 -1.66 11.34 -2 11 C-1.62206515 7.09467317 -1.23947487 3.7184246 0 0 Z " fill="#FF080E" transform="translate(828,411)"/>
<path d="M0 0 C1.32 0 2.64 0 4 0 C3.54738642 1.43931117 3.08767021 2.87638999 2.625 4.3125 C2.36976563 5.11300781 2.11453125 5.91351563 1.8515625 6.73828125 C1 9 1 9 -1 12 C-1.33 11.67 -1.66 11.34 -2 11 C-1.62206515 7.09467317 -1.23947487 3.7184246 0 0 Z " fill="#FF080E" transform="translate(227,411)"/>
<path d="M0 0 C0 0.66 0 1.32 0 2 C-0.66 2 -1.32 2 -2 2 C-2 3.32 -2 4.64 -2 6 C-2.99 6.33 -3.98 6.66 -5 7 C-4.67 5.68 -4.34 4.36 -4 3 C-5.32 2.67 -6.64 2.34 -8 2 C-5.09399739 0.74335022 -3.20395416 0 0 0 Z " fill="#FFEEDC" transform="translate(935,38)"/>
<path d="M0 0 C1.65 0 3.3 0 5 0 C5 1.32 5 2.64 5 4 C3.02 4 1.04 4 -1 4 C-0.67 2.68 -0.34 1.36 0 0 Z " fill="#FFE0E2" transform="translate(792,420)"/>
<path d="M0 0 C1.65 0 3.3 0 5 0 C5 1.32 5 2.64 5 4 C3.02 4 1.04 4 -1 4 C-0.67 2.68 -0.34 1.36 0 0 Z " fill="#FFE0E2" transform="translate(766,420)"/>
<path d="M0 0 C1.98 0.495 1.98 0.495 4 1 C3.67 2.32 3.34 3.64 3 5 C1.68 5 0.36 5 -1 5 C-0.67 3.35 -0.34 1.7 0 0 Z " fill="#FF0E19" transform="translate(475,404)"/>
<path d="M0 0 C2 2 2 2 2 5 C2.66 5.33 3.32 5.66 4 6 C4 6.66 4 7.32 4 8 C2.35 7.67 0.7 7.34 -1 7 C-1.04254356 5.00045254 -1.04080783 2.99958364 -1 1 C-0.67 0.67 -0.34 0.34 0 0 Z " fill="#FFF4F2" transform="translate(937,40)"/>
<path d="M0 0 C1.98 0 3.96 0 6 0 C6.33 1.65 6.66 3.3 7 5 C6.34 4.34 5.68 3.68 5 3 C1.91652174 2.83318891 1.91652174 2.83318891 -1 3 C-0.67 2.01 -0.34 1.02 0 0 Z " fill="#FFFBEF" transform="translate(927,46)"/>
<path d="M0 0 C0.99 0 1.98 0 3 0 C3 1.65 3 3.3 3 5 C1.68 4.67 0.36 4.34 -1 4 C-0.67 2.68 -0.34 1.36 0 0 Z " fill="#FF1B0B" transform="translate(939,41)"/>
<path d="M0 0 C0.99 0 1.98 0 3 0 C3 1.65 3 3.3 3 5 C1.68 4.67 0.36 4.34 -1 4 C-0.67 2.68 -0.34 1.36 0 0 Z " fill="#FF1B0B" transform="translate(917,41)"/>
<path d="M0 0 C1.65 0.33 3.3 0.66 5 1 C5 1.66 5 2.32 5 3 C2.69 3 0.38 3 -2 3 C-1.34 2.01 -0.68 1.02 0 0 Z " fill="#FFF2ED" transform="translate(487,414)"/>
<path d="M0 0 C1.65 0.33 3.3 0.66 5 1 C5 1.66 5 2.32 5 3 C2.69 3 0.38 3 -2 3 C-1.34 2.01 -0.68 1.02 0 0 Z " fill="#FFF2ED" transform="translate(256,414)"/>
<path d="M0 0 C1.65 0.33 3.3 0.66 5 1 C5 1.66 5 2.32 5 3 C2.69 3 0.38 3 -2 3 C-1.34 2.01 -0.68 1.02 0 0 Z " fill="#FFF2ED" transform="translate(239,414)"/>
</svg>
